HIERARCHY
ROOT root
{
	OFFSET	0	13.1	24.9
	CHANNELS 6  Xposition Yposition Zposition Xrotation Yrotation Zrotation
	JOINT spine_1
	{
		OFFSET	0	9.99999	0
		CHANNELS 3  Xrotation Yrotation Zrotation
		JOINT spine_2
		{
			OFFSET	0	112	-10
			CHANNELS 3  Xrotation Yrotation Zrotation
			JOINT spine_3
			{
				OFFSET	0	206.5	19.3
				CHANNELS 3  Xrotation Yrotation Zrotation
				JOINT spine_4
				{
					OFFSET	0	110.4	14.6
					CHANNELS 3  Xrotation Yrotation Zrotation
					JOINT neck_1
					{
						OFFSET	0	71.8	-50.3
						CHANNELS 3  Xrotation Yrotation Zrotation
						JOINT neck_2
						{
							OFFSET	0	86.2	-25.8
							CHANNELS 3  Xrotation Yrotation Zrotation
							JOINT head_ee
							{
								OFFSET	0	179.8	-8.7
								CHANNELS 3  Xrotation Yrotation Zrotation
								End Site
								{
									OFFSET	1	0	0
								}
							}
						}
					}
					JOINT left_clavicle
					{
						OFFSET	-43.2	22.4	-70.8
						CHANNELS 3  Xrotation Yrotation Zrotation
						JOINT left_shoulder
						{
							OFFSET	-93.9	-5.79999	48.7
							CHANNELS 3  Xrotation Yrotation Zrotation
							JOINT left_elbow
							{
								OFFSET	-291.4	-30.8	15.2
								CHANNELS 3  Xrotation Yrotation Zrotation
								JOINT left_lowarm_twist
								{
									OFFSET	-110.7	-3.89999	13.6
									CHANNELS 3  Xrotation Yrotation Zrotation
									JOINT left_hand
									{
										OFFSET	-110.7	-3.89999	13.6
										CHANNELS 3  Xrotation Yrotation Zrotation
										JOINT left_ee
										{
											OFFSET	-80.8	-5.10001	12.1
											CHANNELS 3  Xrotation Yrotation Zrotation
											End Site
											{
												OFFSET	1	0	0
											}
										}
									}
								}
							}
						}
					}
					JOINT right_clavicle
					{
						OFFSET	43.2	22.4	-70.8
						CHANNELS 3  Xrotation Yrotation Zrotation
						JOINT right_shoulder
						{
							OFFSET	93.9	-5.79999	48.7
							CHANNELS 3  Xrotation Yrotation Zrotation
							JOINT right_elbow
							{
								OFFSET	291.4	-30.8	15.2
								CHANNELS 3  Xrotation Yrotation Zrotation
								JOINT right_lowarm_twist
								{
									OFFSET	110.7	-3.89999	13.6
									CHANNELS 3  Xrotation Yrotation Zrotation
									JOINT right_hand
									{
										OFFSET	110.7	-3.89999	13.6
										CHANNELS 3  Xrotation Yrotation Zrotation
										JOINT right_ee
										{
											OFFSET	80.8	-5.10001	12.1
											CHANNELS 3  Xrotation Yrotation Zrotation
											End Site
											{
												OFFSET	1	0	0
											}
										}
									}
								}
							}
						}
					}
				}
			}
		}
	}
	JOINT left_hip
	{
		OFFSET	-82.8	-127.5	0.300001
		CHANNELS 3  Xrotation Yrotation Zrotation
		JOINT left_knee
		{
			OFFSET	-28.2	-396.7	2.2
			CHANNELS 3  Xrotation Yrotation Zrotation
			JOINT left_ankle
			{
				OFFSET	-11.7	-411.3	35.4
				CHANNELS 3  Xrotation Yrotation Zrotation
				JOINT left_toes
				{
					OFFSET	0	-60	-88.6
					CHANNELS 3  Xrotation Yrotation Zrotation
					JOINT left_foot_ee
					{
						OFFSET	-22.5	-16.5	-42.2
						CHANNELS 3  Xrotation Yrotation Zrotation
						End Site
						{
							OFFSET	1	0	0
						}
					}
				}
			}
		}
	}
	JOINT right_hip
	{
		OFFSET	82.8	-127.5	0.300001
		CHANNELS 3  Xrotation Yrotation Zrotation
		JOINT right_knee
		{
			OFFSET	28.2	-396.7	2.2
			CHANNELS 3  Xrotation Yrotation Zrotation
			JOINT right_ankle
			{
				OFFSET	11.7	-411.3	35.4
				CHANNELS 3  Xrotation Yrotation Zrotation
				JOINT right_toes
				{
					OFFSET	0	-60	-88.6
					CHANNELS 3  Xrotation Yrotation Zrotation
					JOINT right_foot_ee
					{
						OFFSET	22.5	-16.5	-42.2
						CHANNELS 3  Xrotation Yrotation Zrotation
						End Site
						{
							OFFSET	1	0	0
						}
					}
				}
			}
		}
	}
}
MOTION
Frames: 8
Frame Time: 0.02
2800.94 716.97 -1473.77 2.57359768657 71.2123529368 7.59768923921 0.912062 -0.988073 -6.12305 0.932706 -0.597206 -6.17325 1.00274 0.606849 -6.17232 0.94982 -0.373644 -6.19074 -7.43127 7.66551 9.99407 -7.16804 7.09589 11.5201 -0.0 0.0 -0.0 9.814 -4.32263 19.413 1.0763 -21.0254 62.0976 4.23994 -64.5206 2.677 60.4812 -1.81696 -7.15214 1.72685 2.15522 12.4702 -0.0 0.0 -0.0 -5.66265 -7.48535 9.32804 -23.4271 33.1811 -68.8291 0.585552 16.1757 -0.0832106 12.3477 -0.2688 1.55137 -0.135744 -6.64202 -1.88458 0.0 0.0 0.0 -17.3618 2.63218 -4.01374 -1.22687 0.0485692 0.182012 31.4246 22.6008 -4.21335 24.6767 -0.0 -0.0 -0.0 0.0 -0.0 30.2382 24.108 -14.2344 -3.05198 -0.113574 -0.454557 12.1299 0.530777 1.72904 -25.8101 0.0 0.0 0.0 0.0 0.0 
2689.16758601 734.238 -1528.12184518 7.29638647906 81.452522815 2.51846844565 0.700947 -0.662563 -6.12482 0.721759 -0.272236 -6.15442 0.75716 0.950055 -6.087 0.7055 -0.0212996 -6.16038 -7.28796 11.7696 10.4019 -7.01711 14.4362 12.7376 -0.0 0.0 -0.0 9.68156 -8.8499 19.1526 -9.89327 -21.146 62.2024 3.01961 -56.2247 1.61342 60.8592 -1.85102 -7.18662 1.86419 2.84947 13.6772 -0.0 0.0 -0.0 -3.96083 -2.96859 7.12727 -17.4208 33.8505 -68.9626 0.542685 15.0473 -0.0716741 11.4024 -0.260108 1.43094 0.215531 -9.24228 -5.22583 0.0 0.0 0.0 -12.7836 0.815792 -8.9058 -14.0001 0.318854 2.1195 38.4775 26.1355 -5.05606 22.17 -0.0 -0.0 -0.0 0.0 -0.0 25.1432 22.5293 -15.5719 -10.942 -0.293618 -1.65102 14.4565 -5.62427 2.02236 -23.1271 0.0 0.0 0.0 0.0 0.0 
2690.31998756 734.238 -1530.4304664 6.4136976556 80.271476217 3.41245580497 0.700947 -0.662563 -6.12482 0.721759 -0.272236 -6.15442 0.75716 0.950055 -6.087 0.7055 -0.0212996 -6.16038 -7.28796 11.7696 10.4019 -7.01711 14.4362 12.7376 -0.0 0.0 -0.0 9.68156 -8.8499 19.1526 -9.89327 -21.146 62.2024 3.01961 -56.2247 1.61342 60.8592 -1.85102 -7.18662 1.86419 2.84947 13.6772 -0.0 0.0 -0.0 -3.96083 -2.96859 7.12727 -17.4208 33.8505 -68.9626 0.542685 15.0473 -0.0716741 11.4024 -0.260108 1.43094 0.215531 -9.24228 -5.22583 0.0 0.0 0.0 -12.7836 0.815792 -8.9058 -14.0001 0.318854 2.1195 38.4775 26.1355 -5.05606 22.17 -0.0 -0.0 -0.0 0.0 -0.0 25.1432 22.5293 -15.5719 -10.942 -0.293618 -1.65102 14.4565 -5.62427 2.02236 -23.1271 0.0 0.0 0.0 0.0 0.0 
2678.84773782 734.804 -1540.1454373 7.01620483647 80.4092513972 2.5131663609 0.743482 -0.540077 -5.66657 0.761316 -0.179 -5.68936 0.784023 0.946784 -5.61313 0.740089 0.049909 -5.69195 -7.20941 11.7633 10.3059 -6.94284 14.4735 12.635 -0.0 0.0 -0.0 9.36592 -8.74248 18.4711 -11.7444 -20.437 61.9723 2.89374 -55.0894 1.50949 60.9538 -1.85958 -7.19521 1.8669 2.62245 13.6076 -0.0 0.0 -0.0 -3.72702 -1.52733 6.95626 -14.7559 34.2963 -69.2741 0.603017 16.6319 -0.0881431 11.4106 -0.260192 1.43198 0.273108 -8.75266 -5.4027 0.0 0.0 0.0 -12.3549 -0.241555 -9.36981 -15.8924 0.321935 2.40981 39.2226 25.6272 -5.11302 22.2847 -0.0 -0.0 -0.0 0.0 -0.0 25.126 22.3606 -16.4084 -10.5852 -0.289046 -1.59647 12.6647 -6.4655 1.78337 -23.5695 0.0 0.0 0.0 0.0 0.0 
2666.28677151 738.028 -1548.11156096 6.68349655804 80.6030546594 3.01811208305 0.890548 -0.539836 -5.25472 0.905878 -0.204847 -5.27834 0.928491 0.826668 -5.21739 0.890526 -0.00650104 -5.28229 -7.5492 11.5008 10.2394 -7.29034 14.1192 12.5454 -0.0 0.0 -0.0 9.17088 -8.71829 18.0512 -13.352 -19.9422 61.2301 2.67877 -52.9895 1.33546 60.4761 -1.8165 -7.15168 1.81926 2.84475 13.3688 -0.0 0.0 -0.0 -3.44284 -1.19063 6.46811 -13.2676 35.8991 -70.0567 0.616872 16.9922 -0.0921503 11.174 -0.25771 1.40186 0.227531 -8.83898 -5.14199 0.0 0.0 0.0 -11.368 -1.01322 -10.2253 -18.0761 0.313576 2.74472 38.9324 25.552 -5.08196 22.7315 -0.0 -0.0 -0.0 0.0 -0.0 23.8129 22.4277 -17.0097 -10.2658 -0.284665 -1.54765 12.8745 -5.75977 1.81208 -23.2273 0.0 0.0 0.0 0.0 0.0 
2653.36558909 738.005 -1558.84491966 5.95860164164 80.6071013657 3.43739660263 0.791579 -0.526238 -4.96498 0.805263 -0.209638 -4.98833 0.827252 0.773986 -4.93252 0.793317 -0.0137168 -4.9927 -7.71971 11.2129 9.79271 -7.48686 13.9451 12.0616 -0.0 0.0 -0.0 8.953 -8.6602 17.5839 -15.1024 -19.3027 60.6285 2.55193 -51.6459 1.23507 60.2047 -1.79218 -7.12678 1.78574 2.90882 13.1652 -0.0 0.0 -0.0 -3.18102 -0.840358 6.02316 -11.9865 37.0621 -70.4252 0.640498 17.6035 -0.0991755 10.9899 -0.255693 1.37844 0.206706 -8.82308 -5.00079 0.0 0.0 0.0 -10.2554 -2.14365 -10.3698 -19.678 0.299331 2.99009 38.8921 25.3031 -5.06989 23.0219 -0.0 -0.0 -0.0 0.0 -0.0 23.0463 22.5696 -17.7006 -10.0017 -0.280836 -1.50731 14.2762 -5.31139 1.99898 -22.8815 0.0 0.0 0.0 0.0 0.0 
2635.81208133 737.718 -1565.11753643 9.09494360462 81.931398085 0.544584563994 0.760442 -0.526928 -4.66867 0.772534 -0.229115 -4.69267 0.794769 0.699189 -4.64605 0.764661 -0.0425007 -4.69806 -7.98867 10.8636 9.37862 -7.78001 13.6527 11.6051 -0.0 0.0 -0.0 8.68472 -8.12886 17.0179 -16.9593 -18.6402 60.4068 2.39307 -49.8431 1.11205 59.7921 -1.75546 -7.08872 1.77355 2.93393 13.0919 -0.0 0.0 -0.0 -2.94079 -0.561871 5.60515 -10.4276 37.8648 -70.6085 0.681829 18.6629 -0.112039 10.8873 -0.254536 1.36538 0.198405 -8.56243 -4.8423 0.0 0.0 0.0 -9.33022 -2.44324 -10.7692 -22.5287 0.257038 3.42542 38.7958 24.9626 -5.04954 23.2183 -0.0 -0.0 -0.0 0.0 -0.0 22.5101 22.2264 -19.089 -9.78702 -0.277588 -1.47453 15.627 -4.89893 2.17678 -22.6347 0.0 0.0 0.0 0.0 0.0 
2636.75401185 737.718 -1566.79990504 8.48599430924 81.3528564009 1.1600626759 0.760442 -0.526928 -4.66867 0.772534 -0.229115 -4.69267 0.794769 0.699189 -4.64605 0.764661 -0.0425007 -4.69806 -7.98867 10.8636 9.37862 -7.78001 13.6527 11.6051 -0.0 0.0 -0.0 8.68472 -8.12886 17.0179 -16.9593 -18.6402 60.4068 2.39307 -49.8431 1.11205 59.7921 -1.75546 -7.08872 1.77355 2.93393 13.0919 -0.0 0.0 -0.0 -2.94079 -0.561871 5.60515 -10.4276 37.8648 -70.6085 0.681829 18.6629 -0.112039 10.8873 -0.254536 1.36538 0.198405 -8.56243 -4.8423 0.0 0.0 0.0 -9.33022 -2.44324 -10.7692 -22.5287 0.257038 3.42542 38.7958 24.9626 -5.04954 23.2183 -0.0 -0.0 -0.0 0.0 -0.0 22.5101 22.2264 -19.089 -9.78702 -0.277588 -1.47453 15.627 -4.89893 2.17678 -22.6347 0.0 0.0 0.0 0.0 0.0 
